<svg id="Layer_1" data-name="Layer 1" xmlns="http://www.w3.org/2000/svg" width="256" height="256" viewBox="0 0 256 256"><rect x="121.4" y="157.7" width="13.4" height="13.19"/><rect x="96.2" y="157.7" width="20.9" height="13.19"/><rect x="139" y="157.7" width="20.9" height="13.19"/><path d="M128.1,70.4C103.6,70.4,83,85.3,82,112.3h92.1C173.1,85.3,152.6,70.4,128.1,70.4Z"/><rect x="78.7" y="157.7" width="13.4" height="13.19"/><path d="M66.1,153.6h124V116.5H66.1ZM127,139.3h51.1a2.3,2.3,0,0,1,2.1,2.1,2.2,2.2,0,0,1-2.1,2.1H127a2.3,2.3,0,0,1-2.1-2.1A2.3,2.3,0,0,1,127,139.3Z"/><rect x="164.1" y="157.7" width="13.4" height="13.19"/><path d="M128.1.5,17.6,64.3V191.8l110.5,63.7,110.4-63.7V64.3Zm66.1,155.1a1.9,1.9,0,0,1-2,2.1H181.7v13.2h10.5a2.2,2.2,0,0,1,2,2.1,2.2,2.2,0,0,1-2,2.1H64a2.2,2.2,0,0,1-2.1-2.1,2.3,2.3,0,0,1,2.1-2.1H74.5V157.7H64a1.9,1.9,0,0,1-2.1-2.1V114.4a1.9,1.9,0,0,1,2.1-2.1H77.8c1.1-29.7,23.3-46.1,50.3-46.1s49.2,16.4,50.2,46.1h13.9a1.9,1.9,0,0,1,2,2.1Z"/></svg>