<svg id="Layer_1" data-name="Layer 1" xmlns="http://www.w3.org/2000/svg" width="256" height="256" viewBox="0 0 256 256"><polygon points="98 150.2 84.3 150.2 65.9 171.9 68.8 176.1 104.1 157.5 98 150.2"/><rect x="72.6" y="135.2" width="114.1" height="10.85"/><path d="M172.3,131a49.5,49.5,0,0,0,2.5-15.9,45.2,45.2,0,0,0-90.3,0c0,5.5.4,11.1,2.5,15.9Z"/><polygon points="87.2 171.3 115.6 171.3 107 160.8 87.2 171.3"/><polygon points="159 150.2 152.7 157.5 188.2 176.1 191.1 172.1 172.7 150.2 159 150.2"/><path d="M128.5,1.5,18.5,65V192l110,63.5,110-63.5V65Zm66.8,171.6-4.8,6.9a2.2,2.2,0,0,1-2.8.6l-10-5.2H79.1L69,180.6a2.1,2.1,0,0,1-2.7-.6l-4.8-6.9a2.3,2.3,0,0,1,.2-2.5l17.4-20.4H70.5a2,2,0,0,1-2.1-2.1v-15a2,2,0,0,1,2.1-2.1H82.6a56.6,56.6,0,0,1-2.3-15.9,49.5,49.5,0,0,1,49.4-49.2c27,0,49.3,22.3,49.3,49.2a50.2,50.2,0,0,1-2.3,15.9h12.1a2,2,0,0,1,2.1,2.1v15a2,2,0,0,1-2.1,2.1H178.1l17.2,20.4A2.3,2.3,0,0,1,195.3,173.1Z"/><polygon points="141.4 171.3 169.8 171.3 150 160.8 141.4 171.3"/><polygon points="103.5 150.2 121 171.3 136 171.3 153.5 150.2 103.5 150.2"/></svg>