<svg id="Layer_1" data-name="Layer 1" xmlns="http://www.w3.org/2000/svg" width="256" height="256" viewBox="0 0 256 256"><polygon points="126.4 127.8 126.4 85.5 96.2 127.8 126.4 127.8"/><rect x="70.1" y="147.7" width="56.3" height="23.24"/><path d="M124.3,81.3C97.5,83,75.1,102.4,68.6,127.8H91Z"/><path d="M130.6,81.1v46.7h57.8A62.2,62.2,0,0,0,130.6,81.1Z"/><rect x="144.2" y="147.7" width="42.7" height="23.24"/><path d="M128.5.5,18.1,64.2V191.7l110.4,63.8,110.4-63.8V64.2Zm90.2,147.2H191.1V173a1.9,1.9,0,0,1-2.1,2.1H68a1.9,1.9,0,0,1-2.1-2.1V147.7H38.2a2.2,2.2,0,0,1-2-2.1,2.2,2.2,0,0,1,2-2.1H54V129.9a1.9,1.9,0,0,1,2-2.1h8.2a66.4,66.4,0,0,1,64.1-50.9c.2-.2.4-.2.8,0,31,.2,56.8,22,63.7,50.9h8.1a1.9,1.9,0,0,1,2.1,2.1v13.6h15.7a2.2,2.2,0,0,1,2.1,2.1A2.3,2.3,0,0,1,218.7,147.7Z"/><rect x="130.6" y="147.7" width="9.4" height="23.24"/><rect x="58.1" y="132" width="140.7" height="11.52"/></svg>