<svg xmlns="http://www.w3.org/2000/svg"><symbol id="mecha-stilts" viewBox="0 0 256 256"><path d="M121.4 157.7h13.4v13.19h-13.4zm-25.2 0h20.9v13.19H96.2zm42.8 0h20.9v13.19H139zm-10.9-87.3c-24.5 0-45.1 14.9-46.1 41.9h92.1c-1-27-21.5-41.9-46-41.9zm-49.4 87.3h13.4v13.19H78.7zm-12.6-4.1h124v-37.1h-124zm60.9-14.3h51.1a2.3 2.3 0 0 1 2.1 2.1 2.2 2.2 0 0 1-2.1 2.1H127a2.3 2.3 0 0 1-2.1-2.1 2.3 2.3 0 0 1 2.1-2.1zm37.1 18.4h13.4v13.19h-13.4z"/><path d="M128.1.5L17.6 64.3v127.5l110.5 63.7 110.4-63.7V64.3zm66.1 155.1a1.9 1.9 0 0 1-2 2.1h-10.5v13.2h10.5a2.2 2.2 0 0 1 2 2.1 2.2 2.2 0 0 1-2 2.1H64a2.2 2.2 0 0 1-2.1-2.1 2.3 2.3 0 0 1 2.1-2.1h10.5v-13.2H64a1.9 1.9 0 0 1-2.1-2.1v-41.2a1.9 1.9 0 0 1 2.1-2.1h13.8c1.1-29.7 23.3-46.1 50.3-46.1s49.2 16.4 50.2 46.1h13.9a1.9 1.9 0 0 1 2 2.1z"/></symbol><symbol id="super-domes" viewBox="0 0 256 256"><path d="M126.4 127.8V85.5l-30.2 42.3h30.2zm-56.3 19.9h56.3v23.24H70.1zm54.2-66.4c-26.8 1.7-49.2 21.1-55.7 46.5H91zm6.3-.2v46.7h57.8a62.2 62.2 0 0 0-57.8-46.7zm13.6 66.6h42.7v23.24h-42.7z"/><path d="M128.5.5L18.1 64.2v127.5l110.4 63.8 110.4-63.8V64.2zm90.2 147.2h-27.6V173a1.9 1.9 0 0 1-2.1 2.1H68a1.9 1.9 0 0 1-2.1-2.1v-25.3H38.2a2.2 2.2 0 0 1-2-2.1 2.2 2.2 0 0 1 2-2.1H54v-13.6a1.9 1.9 0 0 1 2-2.1h8.2a66.4 66.4 0 0 1 64.1-50.9c.2-.2.4-.2.8 0 31 .2 56.8 22 63.7 50.9h8.1a1.9 1.9 0 0 1 2.1 2.1v13.6h15.7a2.2 2.2 0 0 1 2.1 2.1 2.3 2.3 0 0 1-2.1 2.1z"/><path d="M130.6 147.7h9.4v23.24h-9.4zM58.1 132h140.7v11.52H58.1z"/></symbol><symbol id="space-bubbles" viewBox="0 0 256 256"><path d="M98 150.2H84.3l-18.4 21.7 2.9 4.2 35.3-18.6-6.1-7.3zm-25.4-15h114.1v10.85H72.6zm99.7-4.2a49.5 49.5 0 0 0 2.5-15.9 45.2 45.2 0 0 0-90.3 0c0 5.5.4 11.1 2.5 15.9zm-85.1 40.3h28.4l-8.6-10.5-19.8 10.5zm71.8-21.1l-6.3 7.3 35.5 18.6 2.9-4-18.4-21.9H159z"/><path d="M128.5 1.5L18.5 65v127l110 63.5 110-63.5V65zm66.8 171.6l-4.8 6.9a2.2 2.2 0 0 1-2.8.6l-10-5.2H79.1L69 180.6a2.1 2.1 0 0 1-2.7-.6l-4.8-6.9a2.3 2.3 0 0 1 .2-2.5l17.4-20.4h-8.6a2 2 0 0 1-2.1-2.1v-15a2 2 0 0 1 2.1-2.1h12.1a56.6 56.6 0 0 1-2.3-15.9 49.5 49.5 0 0 1 49.4-49.2c27 0 49.3 22.3 49.3 49.2a50.2 50.2 0 0 1-2.3 15.9h12.1a2 2 0 0 1 2.1 2.1v15a2 2 0 0 1-2.1 2.1h-10.7l17.2 20.4a2.3 2.3 0 0 1 0 2.5z"/><path d="M141.4 171.3h28.4L150 160.8l-8.6 10.5zm-37.9-21.1l17.5 21.1h15l17.5-21.1h-50z"/></symbol></svg>