<svg xmlns="http://www.w3.org/2000/svg"><symbol id="mecha-stilts" viewBox="0 0 256 256"><path d="M128.1.5l110.4 63.8v127.5l-110.4 63.7-110.5-63.7V64.3L128.1.5z"/><path fill="#fff" d="M64 175.1a2.2 2.2 0 0 1-2.1-2.1 2.3 2.3 0 0 1 2.1-2.1h10.5v-13.2H64a1.9 1.9 0 0 1-2.1-2.1v-41.2a1.9 1.9 0 0 1 2.1-2.1h13.8c1.1-29.7 23.3-46.1 50.3-46.1s49.2 16.4 50.2 46.1h13.9a1.9 1.9 0 0 1 2 2.1v41.2a1.9 1.9 0 0 1-2 2.1h-10.5v13.2h10.5a2.2 2.2 0 0 1 2 2.1 2.2 2.2 0 0 1-2 2.1zm2.1-58.6v37.1h124v-37.1zm12.6 41.2v13.2h13.4v-13.2zm3.3-45.4h92.1c-1-27-21.5-41.9-46-41.9S83 85.3 82 112.3zm14.2 45.4v13.2h21v-13.2zm25.2 0v13.2h13.4v-13.2zm56.7-14.2H127a2.3 2.3 0 0 1-2.1-2.1 2.3 2.3 0 0 1 2.1-2.1h51.1a2.3 2.3 0 0 1 2.1 2.1 2.2 2.2 0 0 1-2.1 2.1zM139 157.7v13.2h20.9v-13.2zm25.1 0v13.2h13.4v-13.2z"/></symbol><symbol id="space-bubbles" viewBox="0 0 256 256"><path d="M128.5 1.5l110 63.5v127l-110 63.5-110-63.5V65l110-63.5z"/><path fill="#fff" d="M66.3 180l-4.8-6.9a2.3 2.3 0 0 1 .2-2.5l17.4-20.4h-8.6a2 2 0 0 1-2.1-2.1v-15a2 2 0 0 1 2.1-2.1h12.1a56.6 56.6 0 0 1-2.3-15.9 49.5 49.5 0 0 1 49.4-49.2c27 0 49.3 22.3 49.3 49.2a50.2 50.2 0 0 1-2.3 15.9h12.1a2 2 0 0 1 2.1 2.1v15a2 2 0 0 1-2.1 2.1h-10.7l17.2 20.4a2.3 2.3 0 0 1 0 2.5l-4.8 6.9a2.2 2.2 0 0 1-2.8.6l-10-5.2H79.1L69 180.6a2.1 2.1 0 0 1-2.7-.6zM98 150.2H84.3l-18.4 21.7 2.9 4.2 35.3-18.6zm-25.4-15V146h114.1v-10.8zM87 131h85.3a49.5 49.5 0 0 0 2.5-15.9 45.2 45.2 0 0 0-90.3 0c0 5.5.4 11.1 2.5 15.9zm20 29.8l-19.8 10.5h28.4zm-3.5-10.6l17.5 21.1h15l17.5-21.1zm46.5 10.6l-8.6 10.5h28.4zm22.7-10.6H159l-6.3 7.3 35.5 18.6 2.9-4z"/></symbol><symbol id="super-domes" viewBox="0 0 256 256"><path d="M128.5.5l110.4 63.8v127.5l-110.4 63.7-110.4-63.7V64.3L128.5.5z"/><path fill="#fff" d="M68 175.1a1.9 1.9 0 0 1-2.1-2.1v-25.3H38.2a2.2 2.2 0 0 1-2-2.1 2.2 2.2 0 0 1 2-2.1H54v-13.6a1.9 1.9 0 0 1 2-2.1h8.2a66.4 66.4 0 0 1 64.1-50.9c.2-.2.4-.2.8 0 31 .2 56.8 22 63.7 50.9h8.1a1.9 1.9 0 0 1 2.1 2.1v13.6h15.7a2.2 2.2 0 0 1 2.1 2.1 2.3 2.3 0 0 1-2.1 2.1h-27.6V173a1.9 1.9 0 0 1-2.1 2.1zM58.1 132v11.5h140.8V132zm66.2-50.7c-26.8 1.7-49.2 21.1-55.7 46.5H91zm-54.2 66.4v23.2h56.3v-23.2zm56.3-62.2l-30.2 42.3h30.2zm4.2-4.4v46.7h57.8a62.2 62.2 0 0 0-57.8-46.7zm0 66.6v23.2h9.4v-23.2zm13.6 0v23.2h42.7v-23.2z"/></symbol></svg>