<svg xmlns="http://www.w3.org/2000/svg" width="256" height="256" viewBox="0 0 256 256"><path d="M121.4 157.7h13.4v13.19h-13.4zm-25.2 0h20.9v13.19H96.2zm42.8 0h20.9v13.19H139zm-10.9-87.3c-24.5 0-45.1 14.9-46.1 41.9h92.1c-1-27-21.5-41.9-46-41.9zm-49.4 87.3h13.4v13.19H78.7zm-12.6-4.1h124v-37.1h-124zm60.9-14.3h51.1a2.3 2.3 0 0 1 2.1 2.1 2.2 2.2 0 0 1-2.1 2.1H127a2.3 2.3 0 0 1-2.1-2.1 2.3 2.3 0 0 1 2.1-2.1zm37.1 18.4h13.4v13.19h-13.4z"/><path d="M128.1.5L17.6 64.3v127.5l110.5 63.7 110.4-63.7V64.3zm66.1 155.1a1.9 1.9 0 0 1-2 2.1h-10.5v13.2h10.5a2.2 2.2 0 0 1 2 2.1 2.2 2.2 0 0 1-2 2.1H64a2.2 2.2 0 0 1-2.1-2.1 2.3 2.3 0 0 1 2.1-2.1h10.5v-13.2H64a1.9 1.9 0 0 1-2.1-2.1v-41.2a1.9 1.9 0 0 1 2.1-2.1h13.8c1.1-29.7 23.3-46.1 50.3-46.1s49.2 16.4 50.2 46.1h13.9a1.9 1.9 0 0 1 2 2.1z"/></svg>