<svg xmlns="http://www.w3.org/2000/svg" width="256" height="256" viewBox="0 0 256 256"><path d="M128.1.5l110.4 63.8v127.5l-110.4 63.7-110.5-63.7V64.3L128.1.5z"/><path fill="#fff" d="M64 175.1a2.2 2.2 0 0 1-2.1-2.1 2.3 2.3 0 0 1 2.1-2.1h10.5v-13.2H64a1.9 1.9 0 0 1-2.1-2.1v-41.2a1.9 1.9 0 0 1 2.1-2.1h13.8c1.1-29.7 23.3-46.1 50.3-46.1s49.2 16.4 50.2 46.1h13.9a1.9 1.9 0 0 1 2 2.1v41.2a1.9 1.9 0 0 1-2 2.1h-10.5v13.2h10.5a2.2 2.2 0 0 1 2 2.1 2.2 2.2 0 0 1-2 2.1zm2.1-58.6v37.1h124v-37.1zm12.6 41.2v13.2h13.4v-13.2zm3.3-45.4h92.1c-1-27-21.5-41.9-46-41.9S83 85.3 82 112.3zm14.2 45.4v13.2h21v-13.2zm25.2 0v13.2h13.4v-13.2zm56.7-14.2H127a2.3 2.3 0 0 1-2.1-2.1 2.3 2.3 0 0 1 2.1-2.1h51.1a2.3 2.3 0 0 1 2.1 2.1 2.2 2.2 0 0 1-2.1 2.1zM139 157.7v13.2h20.9v-13.2zm25.1 0v13.2h13.4v-13.2z"/></svg>