<svg xmlns="http://www.w3.org/2000/svg" width="256" height="256" viewBox="0 0 256 256"><path d="M126.4 127.8V85.5l-30.2 42.3h30.2zm-56.3 19.9h56.3v23.24H70.1zm54.2-66.4c-26.8 1.7-49.2 21.1-55.7 46.5H91zm6.3-.2v46.7h57.8a62.2 62.2 0 0 0-57.8-46.7zm13.6 66.6h42.7v23.24h-42.7z"/><path d="M128.5.5L18.1 64.2v127.5l110.4 63.8 110.4-63.8V64.2zm90.2 147.2h-27.6V173a1.9 1.9 0 0 1-2.1 2.1H68a1.9 1.9 0 0 1-2.1-2.1v-25.3H38.2a2.2 2.2 0 0 1-2-2.1 2.2 2.2 0 0 1 2-2.1H54v-13.6a1.9 1.9 0 0 1 2-2.1h8.2a66.4 66.4 0 0 1 64.1-50.9c.2-.2.4-.2.8 0 31 .2 56.8 22 63.7 50.9h8.1a1.9 1.9 0 0 1 2.1 2.1v13.6h15.7a2.2 2.2 0 0 1 2.1 2.1 2.3 2.3 0 0 1-2.1 2.1z"/><path d="M130.6 147.7h9.4v23.24h-9.4zM58.1 132h140.7v11.52H58.1z"/></svg>