<svg xmlns="http://www.w3.org/2000/svg" width="256" height="256" viewBox="0 0 256 256"><path d="M128.5.5l110.4 63.8v127.5l-110.4 63.7-110.4-63.7V64.3L128.5.5z"/><path fill="#fff" d="M68 175.1a1.9 1.9 0 0 1-2.1-2.1v-25.3H38.2a2.2 2.2 0 0 1-2-2.1 2.2 2.2 0 0 1 2-2.1H54v-13.6a1.9 1.9 0 0 1 2-2.1h8.2a66.4 66.4 0 0 1 64.1-50.9c.2-.2.4-.2.8 0 31 .2 56.8 22 63.7 50.9h8.1a1.9 1.9 0 0 1 2.1 2.1v13.6h15.7a2.2 2.2 0 0 1 2.1 2.1 2.3 2.3 0 0 1-2.1 2.1h-27.6V173a1.9 1.9 0 0 1-2.1 2.1zM58.1 132v11.5h140.8V132zm66.2-50.7c-26.8 1.7-49.2 21.1-55.7 46.5H91zm-54.2 66.4v23.2h56.3v-23.2zm56.3-62.2l-30.2 42.3h30.2zm4.2-4.4v46.7h57.8a62.2 62.2 0 0 0-57.8-46.7zm0 66.6v23.2h9.4v-23.2zm13.6 0v23.2h42.7v-23.2z"/></svg>